<?xml version="1.0" encoding="UTF-8"?>
<svg width="20px" height="24px" viewBox="0 0 20 24" version="1.1" xmlns="http://www.w3.org/2000/svg" xmlns:xlink="http://www.w3.org/1999/xlink">
    <!-- Generator: Sketch 61 (89581) - https://sketch.com -->
    <title>android@1x</title>
    <desc>Created with Sketch.</desc>
    <g id="Symbols" stroke="none" stroke-width="1" fill="none" fill-rule="evenodd">
        <g id="Footer" transform="translate(-784.000000, -181.000000)" fill="#FFFFFF" fill-rule="nonzero">
            <g id="Group-8">
                <g id="Group-7" transform="translate(486.000000, 86.000000)">
                    <g id="Group-5" transform="translate(0.000000, 74.000000)">
                        <g id="Group-4" transform="translate(298.000000, 21.000000)">
                            <g id="android">
                                <path d="M12.4974766,23.9253271 C13.2974299,23.9253271 13.9950467,23.2276168 13.9950467,22.4276636 L13.9950467,18.9301869 L14.995,18.9301869 C15.5950467,18.9301869 15.9949533,18.5301402 15.9949533,17.9302336 L15.9949533,7.94098131 L4.00504673,7.94098131 L4.00504673,17.9303271 C4.00504673,18.5302804 4.40504673,18.9302804 5.005,18.9302804 L6.00504673,18.9302804 L6.00504673,22.427757 C6.00504673,23.2277103 6.70247664,23.9253271 7.50261682,23.9253271 C8.30247664,23.9253271 9.00004673,23.2277103 9.00004673,22.427757 L9.00004673,18.9302804 L11,18.9302804 L11,22.427757 C10.9999065,23.2276168 11.6975234,23.9253271 12.4974766,23.9253271 Z" id="Path"></path>
                                <path d="M18.4925234,17.9303271 C19.2924766,17.9303271 19.9899533,17.2328037 19.9899533,16.432757 L19.9899533,9.4378972 C19.9899533,8.64214953 19.2925234,7.94098131 18.4925234,7.94098131 C17.6924766,7.94098131 16.9949533,8.64219626 16.9949533,9.4378972 L16.9949533,16.432757 C16.9949533,17.2327103 17.6924299,17.9303271 18.4925234,17.9303271 Z" id="Path"></path>
                                <path d="M1.50752336,17.9303271 C2.30757009,17.9303271 3.00509346,17.2328037 3.00509346,16.432757 L3.00509346,9.4378972 C3.00509346,8.64214953 2.30766355,7.94098131 1.50752336,7.94098131 C0.707570093,7.94098131 0.0100934579,8.64219626 0.0100934579,9.4378972 L0.0100934579,16.432757 C0.0101401869,17.2327103 0.707570093,17.9303271 1.50752336,17.9303271 Z" id="Path"></path>
                                <path d="M14.7949065,0.15088785 C14.595,-0.0502803738 14.2973832,-0.0502803738 14.0974766,0.15088785 L12.7563084,1.48757009 L12.6944393,1.54934579 C11.8992056,1.1511215 11.0075701,0.952242991 10.0146729,0.950327103 C10.0098131,0.950327103 10.005,0.950186916 10.0001402,0.950186916 L10,0.950186916 C9.99495327,0.950186916 9.9903271,0.950327103 9.9853271,0.950327103 C8.99247664,0.952242991 8.10088785,1.1511215 7.30570093,1.54934579 L7.24369159,1.48757009 L5.90252336,0.15088785 C5.70247664,-0.0502803738 5.405,-0.0502803738 5.20509346,0.15088785 C5.00504673,0.350934579 5.00504673,0.647850467 5.20509346,0.847757009 L6.50242991,2.1453271 C6.08439252,2.42443925 5.7053271,2.76598131 5.37570093,3.15663551 C4.58654206,4.09205607 4.08313084,5.30948598 4.01392523,6.6285514 C4.01327103,6.64228972 4.01191589,6.65584112 4.01130841,6.66957944 C4.00705607,6.75939252 4.00509346,6.8496729 4.00509346,6.9403271 L15.9949533,6.9403271 C15.9949533,6.84971963 15.9928037,6.75943925 15.9887383,6.66957944 C15.9880841,6.65584112 15.986729,6.64228972 15.9859346,6.6285514 C15.9168692,5.30948598 15.4133645,4.09200935 14.6241589,3.15672897 C14.2946729,2.76607477 13.9154673,2.42453271 13.4974299,2.14542056 L14.7949065,0.847850467 C14.995,0.647850467 14.995,0.350981308 14.7949065,0.15088785 Z M7.50070093,5.19439252 C7.08700935,5.19439252 6.75158879,4.85901869 6.75158879,4.44528037 C6.75158879,4.03154206 7.08696262,3.69616822 7.50070093,3.69616822 C7.91439252,3.69616822 8.24981308,4.03154206 8.24981308,4.44528037 C8.24981308,4.85901869 7.91439252,5.19439252 7.50070093,5.19439252 Z M12.4992991,5.19439252 C12.0856075,5.19439252 11.7501869,4.85901869 11.7501869,4.44528037 C11.7501869,4.03154206 12.0855607,3.69616822 12.4992991,3.69616822 C12.9129907,3.69616822 13.2484112,4.03154206 13.2484112,4.44528037 C13.2484112,4.85901869 12.9130374,5.19439252 12.4992991,5.19439252 Z" id="Shape"></path>
                            </g>
                        </g>
                    </g>
                </g>
            </g>
        </g>
    </g>
</svg>