<?xml version="1.0" encoding="UTF-8"?>
<svg width="20px" height="25px" viewBox="0 0 20 25" version="1.1" xmlns="http://www.w3.org/2000/svg" xmlns:xlink="http://www.w3.org/1999/xlink">
    <!-- Generator: Sketch 61 (89581) - https://sketch.com -->
    <title>brand@1x</title>
    <desc>Created with Sketch.</desc>
    <g id="Symbols" stroke="none" stroke-width="1" fill="none" fill-rule="evenodd">
        <g id="Footer" transform="translate(-554.000000, -181.000000)" fill="#FFFFFF" fill-rule="nonzero">
            <g id="Group-8">
                <g id="Group-7" transform="translate(486.000000, 86.000000)">
                    <g id="Group-5" transform="translate(0.000000, 74.000000)">
                        <g id="Group-3" transform="translate(68.000000, 20.000000)">
                            <g id="brand" transform="translate(0.000000, 1.000000)">
                                <path d="M19.8967308,17.1015385 C19.8153846,16.9757692 19.683125,16.8918269 19.5346635,16.8717788 C17.5817308,16.6166827 16.2053365,14.8267308 16.4604327,12.8737981 C16.640625,11.4942788 17.6065865,10.3455288 18.9347115,9.93125 C19.2044231,9.84480769 19.3530288,9.55610577 19.2665865,9.28639423 C19.253125,9.24442308 19.2343269,9.20432692 19.210625,9.16711538 C18.3144231,7.54971154 16.7209135,6.43735577 14.8937019,6.15379808 C13.9729327,6.19774038 13.0655288,6.39211538 12.2075481,6.72918269 C11.5913462,6.97716346 10.9406731,7.12903846 10.2783173,7.17942308 C9.61596154,7.12903846 8.96528846,6.97716346 8.34908654,6.72918269 C7.49110577,6.39211538 6.58370192,6.19774038 5.66293269,6.15379808 C3.74807692,6.15379808 0.0219230769,8.86865385 0.0219230769,13.8461058 C0.0219230769,18.5763462 3.47216346,24.6153365 6.17576923,24.6153365 C7.20735577,24.6245673 8.22653846,24.3898077 9.15014423,23.9301923 C9.49798077,23.7383654 9.88245192,23.6223077 10.2783654,23.5896635 C10.6742308,23.6223077 11.05875,23.7383654 11.4065865,23.9301923 C12.3301923,24.3898077 13.349375,24.6245673 14.3809615,24.6153365 C16.5245673,24.6153365 18.9440385,20.9353365 19.9573558,17.5250962 C19.9997596,17.381875 19.9776442,17.2271635 19.8967308,17.1015385 Z" id="Path"></path>
                                <path d="M9.76543269,6.15384615 C12.8794712,6.15043269 15.4030769,3.626875 15.4064423,0.512836538 C15.4064423,0.229615385 15.176875,0 14.8936538,0 C11.7796154,0.00341346154 9.25600962,2.52697115 9.25264422,5.64100962 C9.25264422,5.92423077 9.48221154,6.15384615 9.76543269,6.15384615 Z" id="Path"></path>
                            </g>
                        </g>
                    </g>
                </g>
            </g>
        </g>
    </g>
</svg>