<svg xmlns="http://www.w3.org/2000/svg" width="140" height="140" viewBox="0 0 140 140">
    <g fill="#E4451E">
        <g fill-opacity=".4" transform="translate(34.113 34.113)">
            <path d="M34.353 21.58c5.9 2.493 12.24 3.785 18.645 3.8 6.407-.003 12.75-1.278 18.66-3.753C68.084 10.451 62.707 2.437 56.594.135 55.402.057 54.205 0 52.992 0c-1.214 0-2.402.057-3.603.135-6.08 2.3-11.46 10.292-15.036 21.444zM65.884 1.594c4.49 5.289 7.83 11.456 9.804 18.108 3.925-2.082 7.547-4.689 10.768-7.749-6.012-4.925-13.036-8.462-20.572-10.36zM5.458 50.76c.95-3.248 3.937-5.474 7.32-5.459 3.385.016 6.35 2.27 7.27 5.527.11-.032.223-.054.337-.068h5.074c.092-9.058 1.297-18.071 3.587-26.836-4.678-2.38-8.983-5.431-12.777-9.058C6.457 24.299.67 37.16.114 50.76h5.344zM100.538 55.127c-.952 3.247-3.938 5.472-7.322 5.457-3.384-.016-6.349-2.269-7.27-5.525-.11.031-.222.054-.335.068h-5.074c-.093 9.042-1.293 18.038-3.574 26.788 4.682 2.388 8.985 5.456 12.768 9.104 9.81-9.434 15.599-22.293 16.156-35.892h-5.349zM25.46 55.127h-5.073c-.114-.014-.226-.036-.336-.068-.92 3.259-3.885 5.515-7.271 5.53-3.386.016-6.373-2.212-7.322-5.462H.11c.555 13.6 6.343 26.46 16.156 35.894 3.794-3.627 8.098-6.678 12.776-9.058-2.287-8.765-3.49-17.778-3.58-26.836zM33.128 80.096c12.726-5.26 27.015-5.275 39.75-.041 2.072-8.152 3.177-16.519 3.293-24.928h-6.685C68.39 63.393 61.34 69.57 53.002 69.57c-8.338 0-15.388-6.177-16.483-14.443h-6.692c.117 8.424 1.225 16.805 3.301 24.97z"/>
            <path d="M71.658 84.26c-11.931-5.02-25.386-5.003-37.305.048 3.576 11.152 8.951 19.145 15.043 21.444 1.192.078 2.39.135 3.602.135 1.212 0 2.402-.057 3.602-.135 6.098-2.302 11.484-10.316 15.058-21.492z"/>
            <circle cx="93.253" cy="52.943" r="3.275"/>
            <path d="M75.688 86.185c-1.974 6.652-5.313 12.82-9.804 18.108 7.536-1.897 14.56-5.434 20.572-10.36-3.22-3.06-6.843-5.666-10.768-7.748z"/>
            <circle cx="52.998" cy="52.943" r="12.281"/>
            <path d="M30.314 86.2c-3.922 2.084-7.544 4.688-10.767 7.742 6.01 4.922 13.034 8.457 20.568 10.351-4.488-5.285-7.826-11.446-9.8-18.092zM89.731 14.868c-3.783 3.648-8.086 6.716-12.768 9.104 2.28 8.75 3.481 17.746 3.574 26.788h5.074c.113.014.225.037.334.068.922-3.256 3.887-5.51 7.271-5.525 3.384-.016 6.37 2.21 7.322 5.457h5.349c-.557-13.6-6.345-26.458-16.156-35.892zM52.998 29.747c-6.816-.018-13.564-1.361-19.867-3.956-2.078 8.164-3.187 16.545-3.304 24.97h6.685c1.096-8.267 8.145-14.444 16.484-14.444 8.339 0 15.388 6.177 16.483 14.443h6.685c-.116-8.41-1.22-16.776-3.292-24.928-6.31 2.577-13.059 3.907-19.874 3.915zM30.314 19.686c1.975-6.646 5.313-12.808 9.8-18.092-7.533 1.894-14.557 5.429-20.567 10.35 3.223 3.055 6.845 5.659 10.767 7.742z"/>
            <circle cx="12.746" cy="52.943" r="3.275"/>
        </g>
        <path d="M25.8 98.499l-14.364 4.786c-2.355.79-4.954.18-6.711-1.575-1.758-1.755-2.372-4.353-1.586-6.709l4.8-14.363C-5.947 57.718-.53 28.04 20.556 11.505c21.087-16.536 51.2-14.721 70.148 4.227 18.948 18.948 20.763 49.062 4.227 70.148s-46.214 26.503-69.133 12.619zm1.449-4.24c17.974 11.375 41.258 9.734 57.458-4.05 16.2-13.784 21.55-36.505 13.2-56.068-8.35-19.564-28.455-31.42-49.616-29.26-16.744 1.7-31.414 11.949-38.77 27.086-7.357 15.136-6.352 33.003 2.657 47.219.349.556.429 1.239.218 1.86L7.29 96.381c-.262.785-.058 1.651.527 2.236.586.585 1.452.789 2.237.526l15.326-5.111c.625-.21 1.312-.127 1.869.227z"/>
        <path d="M87.059 38.48h-67.68c-1.206 0-2.184-.978-2.184-2.184 0-1.205.978-2.183 2.183-2.183h67.68c1.206 0 2.184.978 2.184 2.183 0 1.206-.978 2.184-2.183 2.184zM87.059 55.4h-67.68c-1.206 0-2.184-.978-2.184-2.184 0-1.205.978-2.183 2.183-2.183h67.68c1.206 0 2.184.978 2.184 2.183 0 1.206-.978 2.184-2.183 2.184zM62.218 72.32h-42.84c-1.205 0-2.183-.978-2.183-2.184 0-1.205.978-2.183 2.183-2.183h42.84c1.206 0 2.183.978 2.183 2.183 0 1.206-.977 2.184-2.183 2.184z"/>
    </g>
</svg>
