<svg xmlns="http://www.w3.org/2000/svg" width="140" height="140" viewBox="0 0 140 140">
    <g fill="none" fill-rule="evenodd">
        <path fill="#2E937A" fill-opacity=".4" fill-rule="nonzero" d="M120.897 139.727h-67.68c-10.551 0-19.104-8.553-19.104-19.103s8.553-19.104 19.103-19.104h1.42V84.354c-.057-11.61 9.1-21.173 20.7-21.622 11.6-.449 21.469 8.38 22.31 19.958h4.429c10.792.022 19.819 8.205 20.896 18.944 10.084 1.104 17.547 9.899 16.995 20.028-.551 10.13-8.925 18.062-19.07 18.065z"/>
        <g>
            <path d="M35.698 1.747C26.847 4.19 18.868 9.09 12.685 15.879c4.028 2.065 8.229 3.777 12.553 5.117 1.945-7.141 5.526-13.732 10.46-19.25zM24.075 25.203c-4.923-1.513-9.694-3.483-14.25-5.884C3.89 27.14.48 36.584.048 46.392h21.348c.109-7.14 1.007-14.246 2.679-21.189zM48.577 24.561c6.422-.008 12.819-.8 19.049-2.357C63.497 8.95 56.426 0 48.577 0s-14.92 8.951-19.049 22.204c6.23 1.558 12.627 2.35 19.049 2.357zM84.47 15.879C78.285 9.089 70.306 4.19 61.455 1.747c4.932 5.518 8.513 12.108 10.46 19.25 4.324-1.34 8.525-3.053 12.553-5.118zM28.356 26.417c-1.764 7.256-2.643 14.698-2.62 22.164-.023 7.467.856 14.91 2.62 22.165 13.272-3.354 27.17-3.354 40.442 0 1.764-7.256 2.643-14.698 2.62-22.165.023-7.466-.856-14.908-2.62-22.164-6.612 1.662-13.403 2.505-20.221 2.51-6.818-.005-13.609-.848-20.221-2.51zM21.396 50.76H.055c.43 9.808 3.837 19.252 9.77 27.075 4.554-2.4 9.323-4.37 14.243-5.884-1.67-6.944-2.566-14.05-2.672-21.19zM75.758 46.394h21.348c-.432-9.809-3.842-19.253-9.777-27.075-4.554 2.404-9.322 4.378-14.243 5.895 1.668 6.94 2.564 14.043 2.672 21.18zM73.08 71.95c4.922 1.514 9.693 3.484 14.25 5.885 5.934-7.821 9.344-17.265 9.776-27.073H75.758c-.11 7.14-1.008 14.246-2.679 21.189zM12.685 81.275c6.183 6.79 14.162 11.689 23.013 14.132-4.934-5.517-8.515-12.108-10.46-19.25-4.324 1.34-8.525 3.053-12.553 5.118zM48.577 72.593c-6.422.008-12.819.8-19.049 2.357 4.129 13.253 11.2 22.204 19.049 22.204s14.92-8.951 19.049-22.204c-6.23-1.558-12.627-2.35-19.049-2.357zM61.456 95.407c8.851-2.443 16.83-7.343 23.013-14.132-4.028-2.065-8.229-3.777-12.553-5.117-1.947 7.14-5.528 13.73-10.46 19.25z" transform="translate(4.64 4.366)"/>
        </g>
        <path fill="#2E937A" fill-rule="nonzero" d="M53.216 0C28.606-.016 7.23 16.93 1.628 40.895c-5.6 23.965 6.051 48.63 28.12 59.523 22.069 10.894 48.734 5.144 64.352-13.877.127-.124.238-.264.33-.417 12.799-15.863 15.346-37.67 6.547-56.056C92.18 11.681 73.6-.015 53.217 0zM91.97 23.686c5.934 7.82 9.344 17.264 9.776 27.072H80.398c-.108-7.14-1.004-14.247-2.673-21.19 4.92-1.514 9.69-3.483 14.244-5.882zm-2.86-3.44c-4.03 2.064-8.23 3.777-12.554 5.117-1.946-7.141-5.527-13.731-10.46-19.25 8.852 2.444 16.83 7.343 23.014 14.132zM76.053 52.942c.023 7.467-.856 14.91-2.62 22.165-13.272-3.354-27.17-3.354-40.442 0-1.764-7.256-2.643-14.698-2.62-22.165-.023-7.466.856-14.908 2.62-22.164 6.613 1.663 13.406 2.508 20.225 2.515 6.818-.006 13.61-.849 20.222-2.51 1.761 7.254 2.64 14.694 2.615 22.16zM53.216 4.366c7.85 0 14.92 8.952 19.05 22.204-6.23 1.558-12.628 2.35-19.05 2.358-6.421-.008-12.818-.8-19.048-2.358 4.128-13.252 11.2-22.204 19.048-22.204zm-12.88 1.747c-4.935 5.518-8.516 12.108-10.46 19.25-4.324-1.34-8.524-3.053-12.552-5.118 6.183-6.789 14.162-11.688 23.013-14.132h-.002zM14.463 23.686c4.554 2.404 9.323 4.377 14.243 5.895-1.668 6.94-2.565 14.042-2.672 21.18H4.694c.43-9.809 3.838-19.253 9.77-27.075zm0 58.51c-5.934-7.82-9.345-17.264-9.777-27.071h21.348c.107 7.14 1.003 14.247 2.672 21.19-4.92 1.515-9.689 3.485-14.243 5.886v-.004zm2.86 3.446c4.029-2.065 8.23-3.778 12.554-5.118 1.944 7.142 5.526 13.732 10.46 19.25-8.852-2.444-16.83-7.343-23.014-14.132zm35.892 15.878c-7.848 0-14.92-8.95-19.048-22.203 12.504-3.144 25.593-3.144 38.097 0-4.128 13.252-11.2 22.203-19.049 22.203zm12.881-1.746c4.933-5.519 8.514-12.109 10.46-19.25 4.325 1.34 8.525 3.053 12.554 5.118-6.184 6.789-14.163 11.689-23.016 14.132h.002zM91.97 82.2c-4.555-2.4-9.323-4.37-14.244-5.884 1.669-6.943 2.565-14.05 2.673-21.19h21.347c-.431 9.808-3.842 19.253-9.776 27.074z"/>
        <path fill="#2E937A" fill-rule="nonzero" d="M56.987 68.512h-7.543c-1.061 0-2.073-.45-2.784-1.237-.712-.787-1.059-1.838-.954-2.894l1.28-12.806c-3.123-3.378-2.985-8.627.31-11.837 3.293-3.209 8.545-3.209 11.84 0 3.294 3.21 3.431 8.46.31 11.837l1.28 12.804c.106 1.057-.24 2.109-.953 2.896-.712.787-1.724 1.237-2.786 1.237zm-6.87-4.366h6.2l-1.323-13.202c-.074-.731.226-1.45.796-1.913 1.362-1.092 1.886-2.925 1.307-4.572-.58-1.647-2.135-2.75-3.88-2.75-1.746 0-3.302 1.103-3.881 2.75-.579 1.647-.055 3.48 1.306 4.572.57.463.869 1.182.795 1.913l-1.32 13.202z"/>
    </g>
</svg>
