<?xml version="1.0" encoding="UTF-8"?>
<svg width="69px" height="16px" viewBox="0 0 69 16" version="1.1" xmlns="http://www.w3.org/2000/svg" xmlns:xlink="http://www.w3.org/1999/xlink">
    <!-- Generator: Sketch 61 (89581) - https://sketch.com -->
    <title>EDICA@1x</title>
    <desc>Created with Sketch.</desc>
    <g id="Edica-landing-page" stroke="none" stroke-width="1" fill="none" fill-rule="evenodd">
        <g id="Edica-landingpage_2" transform="translate(-168.000000, -54.000000)" fill="#2E937A" fill-rule="nonzero">
            <path d="M177.479,69 L177.479,66.123 L171.83,66.123 L171.83,62.826 L176.849,62.826 L176.849,60.117 L171.83,60.117 L171.83,57.009 L177.479,57.009 L177.479,54.153 L168.239,54.153 L168.239,69 L177.479,69 Z M186.523,69 C188.105,69 189.4805,68.685 190.6495,68.055 C191.8185,67.425 192.7145,66.5465 193.3375,65.4195 C193.9605,64.2925 194.272,63.001 194.272,61.545 C194.272,60.089 193.9605,58.801 193.3375,57.681 C192.7145,56.561 191.822,55.693 190.66,55.077 C189.498,54.461 188.119,54.153 186.523,54.153 L186.523,54.153 L180.916,54.153 L180.916,69 L186.523,69 Z M186.208,65.787 L184.507,65.787 L184.507,57.303 L186.208,57.303 C187.608,57.303 188.6965,57.674 189.4735,58.416 C190.2505,59.158 190.639,60.201 190.639,61.545 C190.639,62.889 190.2505,63.932 189.4735,64.674 C188.6965,65.416 187.608,65.787 186.208,65.787 L186.208,65.787 Z M201.3,69 L201.3,54.153 L197.709,54.153 L197.709,69 L201.3,69 Z M211.961,69.126 C213.851,69.126 215.4155,68.6255 216.6545,67.6245 C217.8935,66.6235 218.695,65.283 219.059,63.603 L219.059,63.603 L215.258,63.603 C214.978,64.275 214.5475,64.807 213.9665,65.199 C213.3855,65.591 212.696,65.787 211.898,65.787 C210.848,65.787 210.001,65.4055 209.357,64.6425 C208.713,63.8795 208.391,62.854 208.391,61.566 C208.391,60.278 208.713,59.249 209.357,58.479 C210.001,57.709 210.848,57.324 211.898,57.324 C212.696,57.324 213.3855,57.52 213.9665,57.912 C214.5475,58.304 214.978,58.843 215.258,59.529 L215.258,59.529 L219.059,59.529 C218.695,57.835 217.8935,56.491 216.6545,55.497 C215.4155,54.503 213.851,54.006 211.961,54.006 C210.519,54.006 209.252,54.3245 208.16,54.9615 C207.068,55.5985 206.2245,56.491 205.6295,57.639 C205.0345,58.787 204.737,60.096 204.737,61.566 C204.737,63.036 205.0345,64.345 205.6295,65.493 C206.2245,66.641 207.068,67.5335 208.16,68.1705 C209.252,68.8075 210.519,69.126 211.961,69.126 Z M225.184,69 L226.108,66.291 L231.673,66.291 L232.597,69 L236.419,69 L230.98,54.258 L226.843,54.258 L221.404,69 L225.184,69 Z M230.749,63.561 L227.032,63.561 L228.901,58.101 L230.749,63.561 Z" id="EDICA"></path>
        </g>
    </g>
</svg>