<svg xmlns="http://www.w3.org/2000/svg" width="140" height="120" viewBox="0 0 140 120">
    <g fill="none">
        <path fill="#F2993A" fill-opacity=".4" d="M133.226 29.355H33.87c-3.741 0-6.774 3.033-6.774 6.774v76.774c0 3.742 3.033 6.774 6.774 6.774h99.355c3.741 0 6.774-3.032 6.774-6.774V36.13c0-3.741-3.033-6.774-6.774-6.774zm-22.58 74.516H56.451c-.918.005-1.747-.545-2.099-1.392-.352-.847-.156-1.823.495-2.47l25.517-25.493c1.761-1.75 4.606-1.75 6.367 0l25.63 25.494c.65.646.846 1.622.495 2.469-.352.847-1.182 1.397-2.099 1.392h-.113zM101.612 70c-4.988 0-9.032-4.044-9.032-9.032 0-4.989 4.044-9.033 9.032-9.033s9.032 4.044 9.032 9.033c0 4.988-4.044 9.032-9.032 9.032zM45.16 48.548H36.13v-9.032h9.032v9.032zm0 20.323H36.13v-9.032h9.032v9.032zm0 20.323H36.13V80.16h9.032v9.033zm0 20.322H36.13v-9.032h9.032v9.032zm85.807-60.968h-9.033v-9.032h9.033v9.032zm0 20.323h-9.033v-9.032h9.033v9.032zm0 20.323h-9.033V80.16h9.033v9.033zm0 20.322h-9.033v-9.032h9.033v9.032z"/>
        <path fill="#F29431" d="M103.103 12.532L76.774 25.697V6.774C76.774 3.033 73.741 0 70 0H6.774C3.033 0 0 3.033 0 6.774V70c0 3.741 3.033 6.774 6.774 6.774H70c3.741 0 6.774-3.033 6.774-6.774V51.077l26.33 13.165c2.101 1.05 4.597.935 6.594-.303 1.997-1.238 3.21-3.422 3.205-5.771V18.606c.005-2.349-1.208-4.533-3.205-5.77-1.997-1.238-4.493-1.353-6.595-.304zM72.258 70c0 1.247-1.01 2.258-2.258 2.258H6.774c-1.247 0-2.258-1.01-2.258-2.258V6.774c0-1.247 1.011-2.258 2.258-2.258H70c1.247 0 2.258 1.011 2.258 2.258V70zm36.13-11.832c.005.786-.4 1.52-1.068 1.934-.668.415-1.505.452-2.207.098L76.774 46.02V30.754l28.339-14.18c.702-.355 1.539-.318 2.207.097.668.415 1.073 1.148 1.067 1.934v39.562zm-51.936-44.62c-3.742 0-6.775 3.033-6.775 6.775 0 3.74 3.033 6.774 6.775 6.774 3.74 0 6.774-3.033 6.774-6.774 0-3.742-3.033-6.775-6.774-6.775zm0 9.033c-1.247 0-2.258-1.011-2.258-2.258 0-1.248 1.01-2.258 2.258-2.258 1.247 0 2.258 1.01 2.258 2.258 0 1.247-1.011 2.258-2.258 2.258z"/>
    </g>
</svg>
